<?xml version="1.0" encoding="UTF-8" standalone="no"?>
<!-- Created with Inkscape (http://www.inkscape.org/) -->

<svg
   width="297mm"
   height="210mm"
   viewBox="0 0 297 210"
   version="1.1"
   id="svg5"
   inkscape:version="1.2.1 (0f2f062aeb, 2022-09-21, custom)"
   sodipodi:docname="eslabon.svg"
   xmlns:inkscape="http://www.inkscape.org/namespaces/inkscape"
   xmlns:sodipodi="http://sodipodi.sourceforge.net/DTD/sodipodi-0.dtd"
   xmlns="http://www.w3.org/2000/svg"
   xmlns:svg="http://www.w3.org/2000/svg">
  <sodipodi:namedview
     id="namedview7"
     pagecolor="#ffffff"
     bordercolor="#000000"
     borderopacity="0.25"
     inkscape:showpageshadow="2"
     inkscape:pageopacity="0.0"
     inkscape:pagecheckerboard="0"
     inkscape:deskcolor="#d1d1d1"
     inkscape:document-units="mm"
     showgrid="false"
     showguides="true"
     inkscape:zoom="0.75722503"
     inkscape:cx="602.8591"
     inkscape:cy="347.9811"
     inkscape:window-width="1848"
     inkscape:window-height="1016"
     inkscape:window-x="72"
     inkscape:window-y="27"
     inkscape:window-maximized="1"
     inkscape:current-layer="layer1">
    <inkscape:grid
       type="xygrid"
       id="grid47822" />
  </sodipodi:namedview>
  <defs
     id="defs2" />
  <g
     inkscape:label="Layer 1"
     inkscape:groupmode="layer"
     id="layer1">
    <path
       id="path43617-5"
       style="font-variation-settings:normal;fill:#00ffff;fill-opacity:1;stroke:#000000;stroke-width:0.265;stroke-linecap:butt;stroke-linejoin:miter;stroke-miterlimit:4;stroke-dasharray:none;stroke-dashoffset:0;stroke-opacity:1;stop-color:#000000"
       d="M 83.185103 83.021806 A 22.971601 22.971601 0 0 0 60.213379 105.99353 A 22.971601 22.971601 0 0 0 83.185103 128.96525 L 233.34648 128.96525 A 22.971601 22.971601 0 0 0 256.3182 105.99353 A 22.971601 22.971601 0 0 0 233.34648 83.021806 L 83.185103 83.021806 z M 83.185103 94.417493 A 11.576024 11.576024 0 0 1 94.761141 105.99353 A 11.576024 11.576024 0 0 1 83.185103 117.56957 A 11.576024 11.576024 0 0 1 71.609066 105.99353 A 11.576024 11.576024 0 0 1 83.185103 94.417493 z M 233.34648 94.417493 A 11.576024 11.576024 0 0 1 244.92252 105.99353 A 11.576024 11.576024 0 0 1 233.34648 117.56957 A 11.576024 11.576024 0 0 1 221.77044 105.99353 A 11.576024 11.576024 0 0 1 233.34648 94.417493 z " />
    <path
       style="fill:#0000ff;stroke:#0000fd;stroke-width:0.1;stroke-dasharray:none;stroke-opacity:1;fill-opacity:1"
       d="m 82.57251,105.92822 h 87.92217"
       id="path47891" />
    <path
       style="fill:#0000ff;fill-opacity:1;stroke:#0000fd;stroke-width:0.1;stroke-dasharray:none;stroke-opacity:1"
       d="M 82.57251,105.92822 H 44.957653"
       id="path48715" />
    <path
       style="fill:#0000ff;fill-opacity:1;stroke:#0000fd;stroke-width:0.1;stroke-dasharray:none;stroke-opacity:1"
       d="m 82.57251,94.352196 87.92217,-0.132498"
       id="path49443" />
    <path
       style="fill:#0000ff;fill-opacity:1;stroke:#0000fd;stroke-width:0.1;stroke-dasharray:none;stroke-opacity:1"
       d="m 82.57251,117.50425 87.92217,-0.0536"
       id="path49447" />
    <path
       style="font-variation-settings:normal;opacity:1;fill:none;fill-opacity:1;stroke:#0000ff;stroke-width:0.1;stroke-linecap:butt;stroke-linejoin:miter;stroke-miterlimit:4;stroke-dasharray:none;stroke-dashoffset:0;stroke-opacity:1;stop-color:#000000;stop-opacity:1"
       d="m 170.49468,94.219698 h 82.57654"
       id="path75448" />
    <path
       style="font-variation-settings:normal;opacity:1;fill:none;fill-opacity:1;stroke:#0000ff;stroke-width:0.1;stroke-linecap:butt;stroke-linejoin:miter;stroke-miterlimit:4;stroke-dasharray:none;stroke-dashoffset:0;stroke-opacity:1;stop-color:#000000;stop-opacity:1"
       d="m 170.49468,117.45065 h 82.7623"
       id="path75452" />
    <path
       style="font-variation-settings:normal;opacity:1;fill:none;fill-opacity:1;stroke:#0000ff;stroke-width:0.1;stroke-linecap:butt;stroke-linejoin:miter;stroke-miterlimit:4;stroke-dasharray:none;stroke-dashoffset:0;stroke-opacity:1;stop-color:#000000;stop-opacity:1"
       d="m 170.49468,105.92822 h 85.82321"
       id="path75456" />
    <path
       style="font-variation-settings:normal;opacity:1;fill:none;fill-opacity:1;stroke:#0000ff;stroke-width:0.1;stroke-linecap:butt;stroke-linejoin:miter;stroke-miterlimit:4;stroke-dasharray:none;stroke-dashoffset:0;stroke-opacity:1;stop-color:#000000;stop-opacity:1"
       d="M 233.34634,83.022013 V 128.96526"
       id="path75460" />
    <path
       style="font-variation-settings:normal;opacity:1;fill:none;fill-opacity:1;stroke:#0000ff;stroke-width:0.1;stroke-linecap:butt;stroke-linejoin:miter;stroke-miterlimit:4;stroke-dasharray:none;stroke-dashoffset:0;stroke-opacity:1;stop-color:#000000;stop-opacity:1"
       d="M 83.185256,83.022013 V 128.96526"
       id="path75466" />
  </g>
</svg>
