<?xml version="1.0" encoding="UTF-8" standalone="no"?>
<!-- Created with Inkscape (http://www.inkscape.org/) -->

<svg
   width="210mm"
   height="297mm"
   viewBox="0 0 210 297"
   version="1.1"
   id="svg5"
   inkscape:version="1.2.1 (8a69933317, 2022-10-28, custom)"
   sodipodi:docname="Corazon.svg"
   xmlns:inkscape="http://www.inkscape.org/namespaces/inkscape"
   xmlns:sodipodi="http://sodipodi.sourceforge.net/DTD/sodipodi-0.dtd"
   xmlns="http://www.w3.org/2000/svg"
   xmlns:svg="http://www.w3.org/2000/svg">
  <sodipodi:namedview
     id="namedview7"
     pagecolor="#ffffff"
     bordercolor="#000000"
     borderopacity="0.25"
     inkscape:showpageshadow="2"
     inkscape:pageopacity="0.0"
     inkscape:pagecheckerboard="0"
     inkscape:deskcolor="#d1d1d1"
     inkscape:document-units="mm"
     showgrid="false"
     inkscape:zoom="0.75722503"
     inkscape:cx="397.50403"
     inkscape:cy="571.16443"
     inkscape:window-width="1848"
     inkscape:window-height="1016"
     inkscape:window-x="72"
     inkscape:window-y="27"
     inkscape:window-maximized="1"
     inkscape:current-layer="layer1" />
  <defs
     id="defs2" />
  <g
     inkscape:label="Layer 1"
     inkscape:groupmode="layer"
     id="layer1">
    <ellipse
       style="fill:none;stroke:#000000;stroke-width:0.224102"
       id="path111"
       cx="118.16335"
       cy="129.65193"
       rx="39.750122"
       ry="40.219719" />
    <path
       style="fill:none;stroke:#000000;stroke-width:0.224102"
       d="m 116.54034,157.00426 c -3.26713,-2.41656 -7.07512,-5.14871 -9.71241,-8.31352 -0.96207,-1.15451 -1.79916,-2.41206 -2.76108,-3.56639 -1.15022,-1.38029 -2.64133,-2.42574 -3.68143,-3.91154 -1.312891,-1.8755 -2.506273,-3.83043 -3.911541,-5.63721 -1.251781,-1.60944 -2.64001,-3.09417 -3.566393,-4.94693 -0.529537,-1.05908 -1.210532,-2.31119 -1.495599,-3.45135 -0.291579,-1.16622 0.03529,-2.45764 -0.115033,-3.66011 -0.300802,-2.40619 -0.516586,-5.26923 -0.115057,-7.67817 0.109752,-0.65846 0.665052,-1.6303 1.035418,-2.18585 1.144236,-1.71635 3.740737,-2.31085 5.407118,-3.33631 2.827267,-1.73985 5.837267,-3.44381 9.088547,-4.25667 0.73495,-0.18374 1.71777,0.0905 2.41596,0.23009 4.05032,0.81007 5.74615,2.92453 7.93809,6.21244 0.59391,0.89086 2.87612,4.20491 2.87612,5.18803 0,0.13506 0,-0.27012 0,-0.40518 0,-0.4956 0.073,-0.78196 0.23011,-1.25334 0.39994,-1.19992 0.84107,-2.32904 1.15043,-3.5664 0.12492,-0.4996 0.51023,-2.51106 0.6903,-2.85257 0.8383,-1.58995 4.60881,-5.4001 6.66279,-5.74244 0.82607,-0.13769 3.93485,-0.25961 4.71352,0 2.23959,0.74667 8.08306,5.91863 9.42704,7.93478 1.29214,1.93839 1.65249,4.87385 1.84072,7.1328 0.37284,4.47448 -0.90401,7.59185 -2.76108,11.73458 -0.71759,1.60078 -1.4408,3.2535 -2.41595,4.71685 -1.60522,2.40887 -5.26653,3.07153 -7.55611,4.59786 -2.96182,1.97449 -5.59906,5.15947 -7.68825,7.87981 -0.66664,0.86802 -1.67393,1.78384 -2.29306,2.63123 -1.79965,2.46317 -4.1406,3.46154 -5.40317,6.50551 z"
       id="path176" />
  </g>
</svg>
